# This file uses centimeters as units for non-parametric coordinates.

mtllib asteroid 3.mtl
g default
v -2.535523 8.030397 -6.357856
v -1.988415 8.030397 -6.357856
v -1.988415 10.453468 -6.357856
v 0.116772 10.453468 -6.357856
v 0.116772 10.682692 -6.357856
v -2.535523 10.682692 -6.357856
v 2.835509 6.044491 -5.030229
v 2.835509 6.044491 -10.028447
v 2.835509 7.775521 -10.028447
v 2.835509 7.775521 -5.030229
v 0.608737 6.044491 -5.030229
v 0.608737 7.775521 -5.030229
v 0.116772 10.453468 -7.027107
v 0.116772 10.682692 -7.027107
v -1.988415 6.476638 -5.473108
v 0.608737 6.476638 -5.473108
v 0.608737 7.775521 -5.473108
v 1.988415 7.775521 -5.473108
v 1.988415 10.453468 -5.473108
v -1.988415 10.453468 -5.473108
v 1.988415 10.453468 -7.027107
v 1.988415 7.775521 -7.027107
v 2.584213 7.775521 -10.028447
v 2.584213 7.775521 -7.027107
v 2.584213 10.836887 -7.027107
v -0.747794 10.836887 -7.027107
v -0.747794 10.682692 -7.027107
v 2.584213 10.836887 -13.705410
v -0.747794 10.836887 -13.705410
v -0.747794 10.682692 -11.673818
v -2.535523 10.682692 -11.673818
v 0.608737 6.044491 -10.028447
v 2.584213 7.504879 -10.028447
v 2.584213 7.504879 -13.705410
v -1.988415 6.476638 -7.653855
v 0.608737 6.476638 -7.653855
v -2.535523 8.030397 -11.673818
v -1.988415 8.030397 -7.653855
v 1.988415 6.476638 -10.028447
v 1.988415 6.476638 -13.443823
v 1.988415 7.504879 -13.443823
v 1.988415 7.504879 -10.028447
v -0.747794 10.453468 -13.443823
v -1.988415 10.453468 -13.443823
v -1.988415 10.453468 -11.673818
v -0.747794 10.453468 -11.673818
v 1.086103 6.476638 -13.443823
v 1.086103 6.476638 -10.028447
v 0.608737 6.255394 -7.653855
v 0.608737 6.255394 -10.028447
v -1.988415 9.587401 -13.443823
v -1.988415 9.587401 -11.673818
v -0.747794 9.587401 -13.443823
v 1.086103 7.504879 -13.443823
v -2.245904 6.255394 -7.653855
v -2.245904 8.030397 -7.653855
v -2.245904 9.587401 -14.332158
v 1.086103 9.587401 -14.332158
v 1.086103 6.255394 -14.332158
v -2.245904 6.255394 -14.332158
v -2.245904 8.030397 -11.673818
v 1.086103 7.504879 -13.705410
v 1.086103 9.587401 -13.705410
v -0.747794 9.587401 -13.705410
v 1.086103 6.255394 -10.028447
v -2.245904 9.587401 -11.673818
vt 0.734696 0.600414
vt 0.734696 0.345921
vt 0.822834 0.345921
vt 0.822834 0.600414
vt 0.105481 0.852993
vt 0.117153 0.852993
vt 0.117153 0.887069
vt 0.105481 0.887069
vt 0.760006 0.914404
vt 0.680881 0.914404
vt 0.680881 0.778052
vt 0.760006 0.778052
vt 0.179542 0.189111
vt 0.179542 0.001892
vt 0.349197 0.001892
vt 0.349197 0.341929
vt 0.193322 0.341929
vt 0.193322 0.189111
vt 0.862962 0.547226
vt 0.862962 0.276555
vt 0.998008 0.276555
vt 0.998008 0.547226
vt 0.087941 0.552400
vt 0.198977 0.552400
vt 0.198977 0.754887
vt 0.153929 0.754887
vt 0.153929 0.631512
vt 0.087941 0.631512
vt 0.290632 0.742943
vt 0.290632 0.569043
vt 0.342987 0.569043
vt 0.342987 0.742943
vt 0.401392 0.600414
vt 0.401392 0.345921
vt 0.489530 0.345921
vt 0.489530 0.368471
vt 0.423395 0.368471
vt 0.423395 0.479507
vt 0.412130 0.479507
vt 0.412130 0.600414
vt 0.061381 0.758878
vt 0.061381 0.849001
vt 0.017283 0.849001
vt 0.017283 0.758878
vt 0.400994 0.238487
vt 0.412665 0.238487
vt 0.412665 0.001892
vt 0.420516 0.001892
vt 0.420516 0.341929
vt 0.356896 0.341929
vt 0.356896 0.328610
vt 0.400994 0.328610
vt 0.604413 0.341929
vt 0.604413 0.001892
vt 0.694791 0.001892
vt 0.694791 0.206575
vt 0.774068 0.206575
vt 0.774068 0.341929
vt 0.225601 0.565052
vt 0.225601 0.345921
vt 0.395256 0.345921
vt 0.395256 0.377833
vt 0.289221 0.377833
vt 0.289221 0.391152
vt 0.236866 0.391152
vt 0.236866 0.565052
vt 0.615181 0.345921
vt 0.728561 0.345921
vt 0.728561 0.600414
vt 0.715766 0.600414
vt 0.715766 0.447595
vt 0.685429 0.447595
vt 0.685429 0.368471
vt 0.615181 0.368471
vt 0.001992 0.754887
vt 0.001992 0.552400
vt 0.081117 0.552400
vt 0.081117 0.647698
vt 0.047041 0.647698
vt 0.047041 0.754887
vt 0.001992 0.001892
vt 0.171647 0.001892
vt 0.171647 0.341929
vt 0.001992 0.341929
vt 0.781768 0.001892
vt 0.916814 0.001892
vt 0.916814 0.035968
vt 0.872793 0.035968
vt 0.872793 0.272563
vt 0.781768 0.272563
vt 0.495665 0.345921
vt 0.609045 0.345921
vt 0.609045 0.600414
vt 0.495665 0.600414
vt 0.436404 0.782297
vt 0.436404 0.914535
vt 0.325367 0.914535
vt 0.325367 0.782297
vt 0.130684 0.849001
vt 0.067516 0.849001
vt 0.067516 0.758878
vt 0.130684 0.758878
vt 0.351049 0.604405
vt 0.396992 0.604405
vt 0.396992 0.778305
vt 0.351049 0.778305
vt 0.856827 0.547226
vt 0.828970 0.547226
vt 0.828970 0.276555
vt 0.843716 0.276555
vt 0.843716 0.481238
vt 0.856827 0.481238
vt 0.206827 0.569043
vt 0.283106 0.569043
vt 0.283106 0.756262
vt 0.252770 0.756262
vt 0.252770 0.582362
vt 0.206827 0.582362
vt 0.427059 0.001892
vt 0.596714 0.001892
vt 0.596714 0.221023
vt 0.572408 0.221023
vt 0.572408 0.341929
vt 0.427059 0.341929
vt 0.966096 0.778052
vt 0.998008 0.778052
vt 0.998008 0.947707
vt 0.862654 0.947707
vt 0.862654 0.934596
vt 0.952777 0.934596
vt 0.952777 0.871428
vt 0.966096 0.871428
vt 0.539700 0.913098
vt 0.539700 0.885241
vt 0.663075 0.885241
vt 0.663075 0.778052
vt 0.674746 0.778052
vt 0.674746 0.913098
vt 0.231093 0.873634
vt 0.231093 0.760254
vt 0.319232 0.760254
vt 0.319232 0.873634
vt 0.016979 0.345921
vt 0.149217 0.345921
vt 0.149217 0.412056
vt 0.219466 0.412056
vt 0.219466 0.548408
vt 0.016979 0.548408
vt 0.403671 0.634741
vt 0.403671 0.604405
vt 0.559546 0.604405
vt 0.559546 0.774060
vt 0.551695 0.774060
vt 0.551695 0.730039
vt 0.540024 0.730039
vt 0.540024 0.634741
vt 0.001992 0.916161
vt 0.001992 0.852993
vt 0.046089 0.852993
vt 0.046089 0.916161
vt 0.098802 0.852993
vt 0.098802 0.905347
vt 0.052860 0.905347
vt 0.052860 0.852993
vt 0.766141 0.923401
vt 0.766141 0.778052
vt 0.777406 0.778052
vt 0.777406 0.910290
vt 0.856519 0.910290
vt 0.856519 0.923401
vt 0.567383 0.604405
vt 0.737038 0.604405
vt 0.737038 0.774060
vt 0.567383 0.774060
vt 0.744738 0.774060
vt 0.744738 0.604405
vt 0.914393 0.604405
vt 0.914393 0.680684
vt 0.808358 0.680684
vt 0.808358 0.774060
vt 0.136820 0.773049
vt 0.136820 0.760254
vt 0.224958 0.760254
vt 0.224958 0.873634
vt 0.214220 0.873634
vt 0.214220 0.849328
vt 0.202955 0.849328
vt 0.202955 0.803385
vt 0.150600 0.803385
vt 0.150600 0.773049
vt 0.457286 0.913098
vt 0.442539 0.913098
vt 0.442539 0.778052
vt 0.533564 0.778052
vt 0.533564 0.789723
vt 0.470396 0.789723
vt 0.470396 0.833820
vt 0.457286 0.833820
vn 0.000000 0.000000 1.000000
vn 0.000000 0.000000 1.000000
vn 0.000000 0.000000 1.000000
vn 0.000000 0.000000 1.000000
vn 0.000000 0.000000 1.000000
vn 0.000000 0.000000 1.000000
vn 1.000000 0.000000 0.000000
vn 1.000000 0.000000 0.000000
vn 1.000000 0.000000 0.000000
vn 1.000000 0.000000 0.000000
vn 0.000000 0.000000 1.000000
vn 0.000000 0.000000 1.000000
vn 0.000000 0.000000 1.000000
vn 0.000000 0.000000 1.000000
vn 1.000000 0.000000 0.000000
vn 1.000000 0.000000 0.000000
vn 1.000000 0.000000 0.000000
vn 1.000000 0.000000 0.000000
vn 0.000000 0.000000 1.000000
vn 0.000000 0.000000 1.000000
vn 0.000000 0.000000 1.000000
vn 0.000000 0.000000 1.000000
vn 0.000000 0.000000 1.000000
vn 0.000000 0.000000 1.000000
vn 1.000000 0.000000 0.000000
vn 1.000000 0.000000 0.000000
vn 1.000000 0.000000 0.000000
vn 1.000000 0.000000 0.000000
vn 0.000000 1.000000 0.000000
vn 0.000000 1.000000 0.000000
vn 0.000000 1.000000 0.000000
vn 0.000000 1.000000 0.000000
vn 0.000000 1.000000 0.000000
vn 0.000000 1.000000 0.000000
vn 0.000000 1.000000 0.000000
vn 0.000000 1.000000 0.000000
vn 0.000000 1.000000 0.000000
vn 0.000000 1.000000 0.000000
vn 0.000000 1.000000 0.000000
vn 0.000000 1.000000 0.000000
vn 0.000000 1.000000 0.000000
vn 0.000000 1.000000 0.000000
vn 0.000000 0.000000 1.000000
vn 0.000000 0.000000 1.000000
vn 0.000000 0.000000 1.000000
vn 0.000000 0.000000 1.000000
vn 0.000000 0.000000 1.000000
vn 0.000000 0.000000 1.000000
vn 0.000000 0.000000 1.000000
vn 0.000000 0.000000 1.000000
vn 0.000000 1.000000 0.000000
vn 0.000000 1.000000 0.000000
vn 0.000000 1.000000 0.000000
vn 0.000000 1.000000 0.000000
vn 0.000000 1.000000 0.000000
vn 0.000000 1.000000 0.000000
vn 0.000000 1.000000 0.000000
vn 0.000000 1.000000 0.000000
vn 0.000000 1.000000 0.000000
vn 0.000000 1.000000 0.000000
vn 0.000000 -1.000000 0.000000
vn 0.000000 -1.000000 0.000000
vn 0.000000 -1.000000 0.000000
vn 0.000000 -1.000000 0.000000
vn 1.000000 0.000000 0.000000
vn 1.000000 0.000000 0.000000
vn 1.000000 0.000000 0.000000
vn 1.000000 0.000000 0.000000
vn 1.000000 0.000000 0.000000
vn 1.000000 0.000000 0.000000
vn 0.000000 -1.000000 0.000000
vn 0.000000 -1.000000 0.000000
vn 0.000000 -1.000000 0.000000
vn 0.000000 -1.000000 0.000000
vn -1.000000 0.000000 0.000000
vn -1.000000 0.000000 0.000000
vn -1.000000 0.000000 0.000000
vn -1.000000 0.000000 0.000000
vn -1.000000 0.000000 0.000000
vn -1.000000 0.000000 0.000000
vn -1.000000 0.000000 0.000000
vn -1.000000 0.000000 0.000000
vn -1.000000 0.000000 0.000000
vn -1.000000 0.000000 0.000000
vn 1.000000 0.000000 0.000000
vn 1.000000 0.000000 0.000000
vn 1.000000 0.000000 0.000000
vn 1.000000 0.000000 0.000000
vn 0.000000 1.000000 0.000000
vn 0.000000 1.000000 0.000000
vn 0.000000 1.000000 0.000000
vn 0.000000 1.000000 0.000000
vn 0.000000 -1.000000 0.000000
vn 0.000000 -1.000000 0.000000
vn 0.000000 -1.000000 0.000000
vn 0.000000 -1.000000 0.000000
vn -1.000000 -0.000000 0.000000
vn -1.000000 -0.000000 0.000000
vn -1.000000 -0.000000 0.000000
vn -1.000000 -0.000000 0.000000
vn -1.000000 -0.000000 0.000000
vn -1.000000 -0.000000 0.000000
vn -1.000000 -0.000000 0.000000
vn -1.000000 -0.000000 0.000000
vn -1.000000 0.000000 0.000000
vn -1.000000 0.000000 0.000000
vn -1.000000 0.000000 0.000000
vn -1.000000 0.000000 0.000000
vn 0.000000 0.000000 -1.000000
vn 0.000000 0.000000 -1.000000
vn 0.000000 0.000000 -1.000000
vn 0.000000 0.000000 -1.000000
vn 0.000000 0.000000 -1.000000
vn 0.000000 0.000000 -1.000000
vn 0.000000 0.000000 -1.000000
vn 0.000000 0.000000 -1.000000
vn -0.000001 0.000000 1.000000
vn -0.000001 0.000000 1.000000
vn -0.000001 0.000000 1.000000
vn -0.000001 0.000000 1.000000
vn -0.000001 0.000000 1.000000
vn -0.000001 0.000000 1.000000
vn 0.000000 0.000000 -1.000000
vn 0.000000 0.000000 -1.000000
vn 0.000000 0.000000 -1.000000
vn 0.000000 0.000000 -1.000000
vn 0.000000 -1.000000 0.000000
vn 0.000000 -1.000000 0.000000
vn 0.000000 -1.000000 0.000000
vn 0.000000 -1.000000 0.000000
vn 0.000000 -1.000000 0.000000
vn 0.000000 -1.000000 0.000000
vn 0.000000 -1.000000 0.000000
vn 0.000000 -1.000000 0.000000
vn 0.000000 -1.000000 0.000000
vn 0.000000 -1.000000 0.000000
vn 0.000000 -1.000000 0.000000
vn 0.000000 -1.000000 0.000000
vn 0.000000 0.000000 -1.000000
vn 0.000000 0.000000 -1.000000
vn 0.000000 0.000000 -1.000000
vn 0.000000 0.000000 -1.000000
vn 0.000000 0.000000 -1.000000
vn 0.000000 0.000000 -1.000000
vn -1.000000 -0.000000 0.000000
vn -1.000000 -0.000000 0.000000
vn -1.000000 -0.000000 0.000000
vn -1.000000 -0.000000 0.000000
vn -1.000000 -0.000000 0.000000
vn -1.000000 -0.000000 0.000000
vn -1.000000 -0.000000 0.000000
vn -1.000000 -0.000000 0.000000
vn 0.000000 -1.000000 0.000000
vn 0.000000 -1.000000 0.000000
vn 0.000000 -1.000000 0.000000
vn 0.000000 -1.000000 0.000000
vn 0.000000 -1.000000 0.000000
vn 0.000000 -1.000000 0.000000
vn -1.000000 0.000000 0.000000
vn -1.000000 0.000000 0.000000
vn -1.000000 0.000000 0.000000
vn -1.000000 0.000000 0.000000
vn -1.000000 0.000000 0.000000
vn -1.000000 0.000000 0.000000
vn 0.000000 0.000000 -1.000000
vn 0.000000 0.000000 -1.000000
vn 0.000000 0.000000 -1.000000
vn 0.000000 0.000000 -1.000000
vn 0.000000 0.000000 -1.000000
vn 0.000000 0.000000 -1.000000
vn 0.000000 0.000000 -1.000000
vn 0.000000 0.000000 -1.000000
vn 0.000000 0.000000 -1.000000
vn 0.000000 0.000000 -1.000000
vn 0.000000 0.000000 -1.000000
vn 0.000000 0.000000 -1.000000
vn 0.000000 0.000000 -1.000000
vn 0.000000 0.000000 -1.000000
vn 0.000000 0.000000 -1.000000
vn 0.000000 0.000000 -1.000000
vn 0.000000 0.000000 -1.000000
vn 0.000000 0.000000 -1.000000
vn 1.000000 0.000000 0.000000
vn 1.000000 0.000000 0.000000
vn 1.000000 0.000000 0.000000
vn 1.000000 0.000000 0.000000
vn 1.000000 0.000000 0.000000
vn 1.000000 0.000000 0.000000
vn 1.000000 0.000000 0.000000
vn 1.000000 0.000000 0.000000
vn 0.000000 1.000000 -0.000001
vn 0.000000 1.000000 -0.000001
vn 0.000000 1.000000 -0.000001
vn 0.000000 1.000000 -0.000001
vn 0.000000 1.000000 -0.000001
vn 0.000000 1.000000 -0.000001
vn 0.000000 1.000000 -0.000001
vn 0.000000 1.000000 -0.000001
s off
g asteroid_1
usemtl standardSurface11SG
f 1/133/1 2/134/2 3/135/3 4/136/4 5/137/5 6/138/6
f 7/1/7 8/2/8 9/3/9 10/4/10
f 11/139/11 7/140/12 10/141/13 12/142/14
f 13/5/15 14/6/16 5/7/17 4/8/18
f 15/143/19 16/144/20 17/145/21 18/146/22 19/147/23 20/148/24
f 21/9/25 19/10/26 18/11/27 22/12/28
f 12/67/29 10/68/30 9/69/31 23/70/32 24/71/33 22/72/34 18/73/35 17/74/36
f 20/75/37 19/76/38 21/77/39 13/78/40 4/79/41 3/80/42
f 22/149/43 24/150/44 25/151/45 26/152/46 27/153/47 14/154/48 13/155/49 21/156/50
f 26/81/51 25/82/52 28/83/53 29/84/54
f 6/85/55 5/86/56 14/87/57 27/88/58 30/89/59 31/90/60
f 32/91/61 8/92/62 7/93/63 11/94/64
f 33/13/65 34/14/66 28/15/67 25/16/68 24/17/69 23/18/70
f 16/95/71 15/96/72 35/97/73 36/98/74
f 37/19/75 1/20/76 6/21/77 31/22/78
f 35/23/79 15/24/80 20/25/81 3/26/82 2/27/83 38/28/84
f 39/29/85 40/30/86 41/31/87 42/32/88
f 43/99/89 44/100/90 45/101/91 46/102/92
f 47/103/93 40/104/94 39/105/95 48/106/96
f 32/33/97 11/34/98 12/35/99 17/36/100 16/37/101 36/38/102 49/39/103 50/40/104
f 45/41/105 44/42/106 51/43/107 52/44/108
f 44/157/109 43/158/110 53/159/111 51/160/112
f 41/161/113 40/162/114 47/163/115 54/164/116
f 55/165/117 49/166/118 36/167/119 35/168/120 38/169/121 56/170/122
f 57/171/123 58/172/124 59/173/125 60/174/126
f 2/107/127 1/108/128 37/109/129 61/110/130 56/111/131 38/112/132
f 62/113/133 34/114/134 33/115/135 42/116/136 41/117/137 54/118/138
f 29/175/139 28/176/140 34/177/141 62/178/142 63/179/143 64/180/144
f 46/45/145 30/46/146 27/47/147 26/48/148 29/49/149 64/50/150 53/51/151 43/52/152
f 60/119/153 59/120/154 65/121/155 50/122/156 49/123/157 55/124/158
f 60/53/159 55/54/160 56/55/161 61/56/162 66/57/163 57/58/164
f 23/181/165 9/182/166 8/183/167 32/184/168 50/185/169 65/186/170 48/187/171 39/188/172 42/189/173 33/190/174
f 61/191/175 37/192/176 31/193/177 30/194/178 46/195/179 45/196/180 52/197/181 66/198/182
f 65/59/183 59/60/184 58/61/185 63/62/186 62/63/187 54/64/188 47/65/189 48/66/190
f 63/125/191 58/126/192 57/127/193 66/128/194 52/129/195 51/130/196 53/131/197 64/132/198
